<?xml version="1.0" encoding="utf-8"?>
<!-- Generator: Adobe Illustrator 24.0.2, SVG Export Plug-In . SVG Version: 6.00 Build 0)  -->
<svg version="1.1" id="Layer_1" xmlns="http://www.w3.org/2000/svg" xmlns:xlink="http://www.w3.org/1999/xlink" x="0px" y="0px"
	 viewBox="0 0 202.4 124.2" style="enable-background:new 0 0 202.4 124.2;" xml:space="preserve">
<style type="text/css">
	.st0{fill:#FBBC06;}
	.st1{fill:#7546E8;}
</style>
<g>
	<g>
		<path d="M16.9,80.6c6.4,0,9.5,3.7,9.5,8.1c0,3.2-1.8,6.5-6,7.6l6.3,10.7l-6.1,0l-5.8-10.3l-2.5,0l0,10.3l-5.3,0l0.1-26.5
			L16.9,80.6z M16.7,85l-4.4,0l0,7.8l4.4,0c3,0,4.3-1.5,4.3-3.9C21,86.5,19.6,85,16.7,85z"/>
		<path d="M40.3,107.5c-6.1,0-10.5-4.3-10.5-10.9c0-6.6,4.3-10.8,10.6-10.8c6.1,0,10.3,4.2,10.3,10.4c0,0.7,0,1.4-0.2,2l-15.4,0
			c0.3,3.1,2.4,4.9,5,4.9c2.3,0,3.5-1.1,4.2-2.5l5.7,0C49,104.4,45.5,107.5,40.3,107.5z M35.3,94.6l10,0c-0.1-2.8-2.3-4.5-5-4.5
			C37.7,90.1,35.7,91.8,35.3,94.6z"/>
		<path class="st0" d="M54.6,79.1l5.3,0l0,9.7c1.4-1.8,3.7-2.9,6.5-2.9c4.7,0,8.2,3.2,8.2,9l0,12.3l-5.3,0l0-11.6
			c0-3.4-1.8-5.2-4.6-5.2c-2.9,0-4.7,1.8-4.8,5.2l0,11.6l-5.3,0L54.6,79.1z"/>
		<path class="st0" d="M88.8,107.6c-6.1,0-10.5-4.3-10.5-10.9c0-6.6,4.3-10.8,10.6-10.8c6.1,0,10.3,4.2,10.3,10.4c0,0.7,0,1.4-0.2,2
			l-15.4,0c0.3,3.1,2.4,4.9,5,4.9c2.3,0,3.5-1.1,4.2-2.5l5.7,0C97.5,104.5,94,107.6,88.8,107.6z M83.7,94.8l10,0
			c-0.1-2.8-2.3-4.5-5-4.5C86.1,90.3,84.1,91.9,83.7,94.8z"/>
		<path class="st0" d="M111.3,86c3.4,0,5.7,1.6,6.9,3.4l0-3l5.3,0l-0.1,21l-5.3,0l0-3.1c-1.3,1.8-3.6,3.4-7,3.4
			c-5.3,0-9.5-4.4-9.5-10.9C101.7,90.1,105.9,85.9,111.3,86z M112.6,90.6c-2.8,0-5.5,2.1-5.5,6.1s2.7,6.3,5.5,6.3
			c2.9,0,5.6-2.2,5.6-6.2C118.2,92.8,115.5,90.6,112.6,90.6z"/>
		<path class="st0" d="M134,107.4l-5.3,0l0.1-21l5.3,0l0,3.3c1.3-2.2,3.5-3.6,6.5-3.5l0,5.6l-1.4,0c-3.1,0-5,1.2-5.1,5.3L134,107.4z
			"/>
		<path d="M152,107.7c-5.3,0-8.9-3.1-9.2-7l5.3,0c0.2,1.6,1.7,2.8,3.8,2.8c2.1,0,3.2-0.9,3.2-2.2c0-3.8-11.9-1.4-11.8-9.1
			c0-3.5,3.1-6.3,8.3-6.3c5.1,0,8.1,2.8,8.4,7l-5.1,0c-0.1-1.6-1.4-2.7-3.5-2.7c-2,0-3,0.8-3,2c0,3.8,11.6,1.5,11.8,9.2
			C160.3,105,157.1,107.8,152,107.7z"/>
		<path d="M172.9,86.1c3.4,0,5.7,1.6,6.9,3.4l0-3l5.3,0l-0.1,21l-5.3,0l0-3.1c-1.3,1.8-3.6,3.4-7,3.4c-5.3,0-9.5-4.4-9.5-10.9
			C163.3,90.3,167.6,86.1,172.9,86.1z M174.3,90.8c-2.8,0-5.5,2.1-5.5,6.1s2.7,6.3,5.5,6.3c2.9,0,5.6-2.2,5.6-6.2
			C179.8,93,177.2,90.8,174.3,90.8z"/>
		<path d="M190.4,79.4l5.3,0l-0.1,28l-5.3,0L190.4,79.4z"/>
	</g>
	<path class="st1" d="M199.6,124.2H2.8c-1.6,0-2.8-1.3-2.8-2.8s1.3-2.8,2.8-2.8h196.8c1.6,0,2.8,1.3,2.8,2.8
		S201.2,124.2,199.6,124.2z"/>
	<path class="st0" d="M58.6,72.8L160.4,0.2c0.8-0.6,1.8,0.2,1.5,1.1L137.2,74c-0.1,0.4-0.5,0.7-0.9,0.7H59.2
		C58.3,74.6,57.9,73.4,58.6,72.8z"/>
</g>
</svg>
